<svg width="454" height="93" viewBox="0 0 454 93" fill="none" xmlns="http://www.w3.org/2000/svg">
<path d="M11.704 69.368L11.064 53.752L61.88 1.39999H76.472L37.176 42.872L30.008 50.808L11.704 69.368ZM0.440001 91V1.39999H13.24V91H0.440001ZM63.928 91L27.192 48.248L35.768 38.776L78.904 91H63.928ZM75.247 91L115.823 1.39999H128.495L169.199 91H155.759L119.535 8.56799H124.655L88.431 91H75.247ZM92.527 68.6L95.983 58.36H146.415L150.127 68.6H92.527ZM182.565 91V1.39999H193.061L252.325 75H246.821V1.39999H259.621V91H249.125L189.861 17.4H195.365V91H182.565ZM312.552 92.024C305.725 92.024 299.197 91 292.968 88.952C286.739 86.8187 281.832 84.088 278.248 80.76L282.984 70.776C286.397 73.7627 290.749 76.2373 296.04 78.2C301.331 80.1627 306.835 81.144 312.552 81.144C317.757 81.144 321.981 80.5467 325.224 79.352C328.467 78.1573 330.856 76.536 332.392 74.488C333.928 72.3547 334.696 69.9653 334.696 67.32C334.696 64.248 333.672 61.7733 331.624 59.896C329.661 58.0187 327.059 56.5253 323.816 55.416C320.659 54.2213 317.16 53.1973 313.32 52.344C309.48 51.4907 305.597 50.5093 301.672 49.4C297.832 48.2053 294.291 46.712 291.048 44.92C287.891 43.128 285.331 40.7387 283.368 37.752C281.405 34.68 280.424 30.7547 280.424 25.976C280.424 21.368 281.619 17.144 284.008 13.304C286.483 9.37866 290.237 6.26399 295.272 3.96C300.392 1.57067 306.877 0.375999 314.728 0.375999C319.933 0.375999 325.096 1.05866 330.216 2.424C335.336 3.78933 339.773 5.75199 343.528 8.312L339.304 18.552C335.464 15.992 331.411 14.1573 327.144 13.048C322.877 11.8533 318.739 11.256 314.728 11.256C309.693 11.256 305.555 11.896 302.312 13.176C299.069 14.456 296.68 16.1627 295.144 18.296C293.693 20.4293 292.968 22.8187 292.968 25.464C292.968 28.6213 293.949 31.1387 295.912 33.016C297.96 34.8933 300.563 36.3867 303.72 37.496C306.963 38.6053 310.504 39.6293 314.344 40.568C318.184 41.4213 322.024 42.4027 325.864 43.512C329.789 44.6213 333.331 46.072 336.488 47.864C339.731 49.656 342.333 52.0453 344.296 55.032C346.259 58.0187 347.24 61.8587 347.24 66.552C347.24 71.0747 346.003 75.2987 343.528 79.224C341.053 83.064 337.213 86.1787 332.008 88.568C326.888 90.872 320.403 92.024 312.552 92.024ZM406.388 92.024C399.561 92.024 393.204 90.872 387.316 88.568C381.513 86.264 376.479 83.064 372.212 78.968C367.945 74.7867 364.617 69.9227 362.228 64.376C359.839 58.8293 358.644 52.7707 358.644 46.2C358.644 39.6293 359.839 33.5707 362.228 28.024C364.617 22.4773 367.945 17.656 372.212 13.56C376.479 9.37866 381.513 6.13599 387.316 3.83199C393.119 1.528 399.476 0.375999 406.388 0.375999C413.215 0.375999 419.487 1.528 425.204 3.83199C431.007 6.05066 436.041 9.25066 440.308 13.432C444.66 17.528 447.988 22.3493 450.292 27.896C452.681 33.4427 453.876 39.544 453.876 46.2C453.876 52.856 452.681 58.9573 450.292 64.504C447.988 70.0507 444.66 74.9147 440.308 79.096C436.041 83.192 431.007 86.392 425.204 88.696C419.487 90.9147 413.215 92.024 406.388 92.024ZM406.388 80.632C411.337 80.632 415.903 79.7787 420.084 78.072C424.351 76.3653 428.02 73.976 431.092 70.904C434.249 67.7467 436.681 64.0773 438.388 59.896C440.18 55.7147 441.076 51.1493 441.076 46.2C441.076 41.2507 440.18 36.6853 438.388 32.504C436.681 28.3227 434.249 24.696 431.092 21.624C428.02 18.4667 424.351 16.0347 420.084 14.328C415.903 12.6213 411.337 11.768 406.388 11.768C401.353 11.768 396.703 12.6213 392.436 14.328C388.255 16.0347 384.585 18.4667 381.428 21.624C378.271 24.696 375.796 28.3227 374.004 32.504C372.297 36.6853 371.444 41.2507 371.444 46.2C371.444 51.1493 372.297 55.7147 374.004 59.896C375.796 64.0773 378.271 67.7467 381.428 70.904C384.585 73.976 388.255 76.3653 392.436 78.072C396.703 79.7787 401.353 80.632 406.388 80.632Z" fill="#2E3257"/>
</svg>
