<svg width="43" height="43" viewBox="0 0 43 43" fill="none" xmlns="http://www.w3.org/2000/svg">
<path fill-rule="evenodd" clip-rule="evenodd" d="M38.5205 41.2084H4.47884C2.49995 41.2084 0.895508 39.6039 0.895508 37.625L4.47884 16.125C5.08622 13.0416 6.86892 12.5417 8.84782 12.5417H11.2236C12.5745 6.31744 16.664 1.79169 21.4997 1.79169C26.3354 1.79169 30.4249 6.31744 31.7758 12.5417H34.1515C36.1304 12.5417 37.9131 13.0416 38.5205 16.125L42.1038 37.625C42.1038 39.6039 40.4994 41.2084 38.5205 41.2084ZM21.4997 3.58335C17.601 3.58335 14.2927 7.32615 13.0627 12.5417H29.9375C28.7067 7.32615 25.3992 3.58335 21.4997 3.58335ZM36.7288 16.125C36.4529 14.9148 35.8715 14.3334 34.6057 14.3334H32.0723C32.1825 15.2077 32.2497 16.1026 32.2497 17.0209C32.2497 17.5154 31.8492 17.9167 31.3538 17.9167C30.8584 17.9167 30.458 17.5154 30.458 17.0209C30.458 16.1008 30.3962 15.2014 30.2779 14.3334H12.7214C12.604 15.2014 12.5413 16.1008 12.5413 17.0209C12.5413 17.5154 12.1409 17.9167 11.6455 17.9167C11.1501 17.9167 10.7497 17.5154 10.7497 17.0209C10.7497 16.1026 10.8169 15.2077 10.9262 14.3334H8.39274C7.12782 14.3334 6.54732 14.9148 6.27051 16.125L2.68717 37.625C2.68717 38.614 3.48984 39.4167 4.47884 39.4167H38.5205C39.5095 39.4167 40.3122 38.614 40.3122 37.625L36.7288 16.125Z" fill="black"/>
</svg>
