<svg width="17" height="16" viewBox="0 0 17 16" fill="none" xmlns="http://www.w3.org/2000/svg">
<path d="M4.93 0H12.07C14.79 0 17 2.08 17 4.64V11.36C17 12.5906 16.4806 13.7708 15.556 14.641C14.6315 15.5111 13.3775 16 12.07 16H4.93C2.21 16 0 13.92 0 11.36V4.64C0 3.4094 0.519409 2.22919 1.44396 1.35902C2.36852 0.488856 3.62248 0 4.93 0ZM4.76 1.6C3.94844 1.6 3.17011 1.90343 2.59625 2.44353C2.02239 2.98364 1.7 3.71618 1.7 4.48V11.52C1.7 13.112 3.0685 14.4 4.76 14.4H12.24C13.0516 14.4 13.8299 14.0966 14.4037 13.5565C14.9776 13.0164 15.3 12.2838 15.3 11.52V4.48C15.3 2.888 13.9315 1.6 12.24 1.6H4.76ZM12.9625 2.8C13.2443 2.8 13.5145 2.90536 13.7138 3.09289C13.9131 3.28043 14.025 3.53478 14.025 3.8C14.025 4.06522 13.9131 4.31957 13.7138 4.50711C13.5145 4.69464 13.2443 4.8 12.9625 4.8C12.6807 4.8 12.4105 4.69464 12.2112 4.50711C12.0119 4.31957 11.9 4.06522 11.9 3.8C11.9 3.53478 12.0119 3.28043 12.2112 3.09289C12.4105 2.90536 12.6807 2.8 12.9625 2.8ZM8.5 4C9.62717 4 10.7082 4.42143 11.5052 5.17157C12.3022 5.92172 12.75 6.93913 12.75 8C12.75 9.06087 12.3022 10.0783 11.5052 10.8284C10.7082 11.5786 9.62717 12 8.5 12C7.37283 12 6.29183 11.5786 5.4948 10.8284C4.69777 10.0783 4.25 9.06087 4.25 8C4.25 6.93913 4.69777 5.92172 5.4948 5.17157C6.29183 4.42143 7.37283 4 8.5 4ZM8.5 5.6C7.8237 5.6 7.1751 5.85286 6.69688 6.30294C6.21866 6.75303 5.95 7.36348 5.95 8C5.95 8.63652 6.21866 9.24697 6.69688 9.69706C7.1751 10.1471 7.8237 10.4 8.5 10.4C9.1763 10.4 9.82491 10.1471 10.3031 9.69706C10.7813 9.24697 11.05 8.63652 11.05 8C11.05 7.36348 10.7813 6.75303 10.3031 6.30294C9.82491 5.85286 9.1763 5.6 8.5 5.6Z" fill="#DFC5A4"/>
</svg>
