<svg width="226" height="120" viewBox="0 0 226 120" fill="none" xmlns="http://www.w3.org/2000/svg">
<path d="M54.784 17.56H59.2V60.12H54.784V17.56ZM68.16 37.272H72.512V57.176H68.16V37.272ZM70.144 37.272H91.968V54.872H70.144V51.8H87.68V40.408H70.144V37.272ZM57.024 17.56H77.248V34.072H57.024V30.872H72.896V20.76H57.024V17.56ZM57.216 24.28H74.432V27.288H57.216V24.28ZM70.208 44.504H89.728V47.512H70.208V44.504ZM85.312 24.28H103.168V27.288H85.312V24.28ZM102.592 17.56V20.76H87.104V30.872H102.592V34.072H82.688V17.56H102.592ZM101.44 17.56H105.92V54.616C105.92 57.304 105.344 58.648 103.488 59.352C101.632 60.056 98.432 60.12 93.632 60.12C93.44 58.904 92.736 57.048 92.16 55.768C95.744 55.96 99.072 55.896 100.096 55.896C101.12 55.832 101.44 55.512 101.44 54.616V17.56ZM58.432 6.232H79.104V10.008H58.432V6.232ZM83.456 6.232H108.608V10.008H83.456V6.232ZM59.648 0.983997L64.192 2.136C61.824 7.768 58.048 13.272 54.336 16.856C53.44 16.152 51.52 14.808 50.368 14.232C54.208 10.904 57.664 5.976 59.648 0.983997ZM85.056 0.983997L89.664 2.072C87.36 7.704 83.2 12.952 79.168 16.344C78.208 15.64 76.16 14.488 75.008 13.912C79.232 10.776 83.072 6.04 85.056 0.983997ZM62.016 9.304L66.048 8.216C67.52 10.392 69.056 13.4 69.696 15.32L65.472 16.536C64.896 14.616 63.424 11.544 62.016 9.304ZM89.408 9.24L93.504 7.96C95.488 10.136 97.664 13.208 98.624 15.32L94.4 16.728C93.504 14.68 91.392 11.544 89.408 9.24ZM141.44 42.648H146.24V60.056H141.44V42.648ZM138.368 23.064L142.784 25.176C139.2 28.376 134.912 31.96 131.456 34.264L128.128 32.344C131.52 29.912 135.872 25.944 138.368 23.064ZM151.488 26.392L155.776 28.76C149.184 34.136 140.096 40.344 133.056 44.12L129.856 41.944C136.896 38.04 145.984 31.384 151.488 26.392ZM121.856 32.28L124.992 29.528C129.792 31.832 136.064 35.416 139.264 38.04L135.872 41.048C132.864 38.488 126.784 34.712 121.856 32.28ZM153.728 36.376L157.12 33.752C162.624 36.824 169.344 41.432 172.736 44.952L169.152 47.768C166.016 44.376 159.36 39.512 153.728 36.376ZM152.576 49.24L156.096 46.616C161.536 49.048 168.448 52.952 171.968 55.896L168.256 58.776C164.928 55.896 158.08 51.8 152.576 49.24ZM116.096 41.368C128.192 41.304 147.968 40.984 166.336 40.6L166.08 44.312C148.096 44.76 128.832 45.208 116.48 45.4L116.096 41.368ZM130.624 46.68L134.976 48.344C130.624 52.504 124.032 56.536 118.528 59.096C117.696 58.2 115.904 56.536 114.816 55.832C120.512 53.592 126.72 50.2 130.624 46.68ZM141.44 1.176H146.24V23.96H141.44V1.176ZM119.296 5.976H169.344V9.624H119.296V5.976ZM122.816 13.72H165.568V17.432H122.816V13.72ZM115.904 21.592H172.224V25.432H115.904V21.592ZM2.9705 74.456V104.6L33.1785 74.456H36.5065L17.8825 93.016L36.4425 119H33.6265L16.2185 94.68L2.9705 107.928V119H0.6025V74.456H2.9705ZM63.4015 74.456H65.8975L84.2015 119H81.6415L75.6255 104.28H53.6735L47.5935 119H45.0975L63.4015 74.456ZM54.6335 101.976H74.6655L64.6175 77.528L54.6335 101.976ZM94.5845 119V74.456H97.0805L128.185 104.664V74.456H130.553V119H128.185V107.992L96.9525 77.528V119H94.5845ZM160.328 97.688C156.701 96.9627 153.736 96.1733 151.432 95.32C149.17 94.424 147.378 93.2293 146.056 91.736C144.775 90.2 144.135 88.2373 144.135 85.848C144.135 83.3733 144.775 81.1973 146.056 79.32C147.378 77.4427 149.213 75.992 151.56 74.968C153.949 73.944 156.701 73.432 159.816 73.432C162.802 73.432 165.533 74.072 168.007 75.352C170.525 76.5893 172.509 78.3387 173.96 80.6C175.41 82.8613 176.136 85.4427 176.136 88.344H173.768C173.768 85.8267 173.149 83.608 171.912 81.688C170.674 79.768 168.989 78.296 166.856 77.272C164.722 76.2053 162.354 75.672 159.752 75.672C157.448 75.672 155.293 76.0347 153.288 76.76C151.282 77.4853 149.64 78.5947 148.36 80.088C147.122 81.5813 146.504 83.4587 146.504 85.72C146.504 87.768 147.101 89.4107 148.296 90.648C149.49 91.8427 151.048 92.76 152.968 93.4C154.888 94.04 157.576 94.7227 161.032 95.448C164.53 96.1733 167.24 96.8773 169.16 97.56C171.122 98.2 172.765 99.288 174.088 100.824C175.453 102.36 176.136 104.515 176.136 107.288C176.136 110.061 175.389 112.408 173.896 114.328C172.445 116.205 170.504 117.613 168.072 118.552C165.64 119.491 162.994 119.96 160.136 119.96C156.594 119.96 153.48 119.299 150.792 117.976C148.104 116.653 146.034 114.797 144.584 112.408C143.176 109.976 142.472 107.203 142.472 104.088H144.84C144.84 106.819 145.437 109.208 146.632 111.256C147.869 113.304 149.64 114.904 151.944 116.056C154.248 117.165 156.978 117.72 160.136 117.72C164.061 117.72 167.304 116.781 169.864 114.904C172.466 113.027 173.768 110.467 173.768 107.224C173.768 105.005 173.213 103.299 172.104 102.104C170.994 100.909 169.586 100.056 167.88 99.544C166.216 98.9893 163.698 98.3707 160.328 97.688ZM206.743 73.496C210.071 73.496 213.143 74.328 215.958 75.992C218.775 77.6133 220.993 79.832 222.615 82.648C224.279 85.464 225.111 88.536 225.111 91.864V101.592C225.111 104.92 224.279 107.992 222.615 110.808C220.993 113.624 218.775 115.864 215.958 117.528C213.143 119.149 210.071 119.96 206.743 119.96C203.415 119.96 200.343 119.149 197.527 117.528C194.711 115.864 192.471 113.624 190.807 110.808C189.185 107.992 188.375 104.92 188.375 101.592V91.864C188.375 88.536 189.185 85.464 190.807 82.648C192.471 79.832 194.711 77.6133 197.527 75.992C200.343 74.328 203.415 73.496 206.743 73.496ZM190.743 101.592C190.743 104.493 191.447 107.181 192.855 109.656C194.305 112.088 196.247 114.029 198.679 115.48C201.153 116.888 203.841 117.592 206.743 117.592C209.644 117.592 212.311 116.888 214.743 115.48C217.217 114.029 219.159 112.088 220.567 109.656C222.017 107.181 222.743 104.493 222.743 101.592V91.864C222.743 88.9627 222.017 86.296 220.567 83.864C219.159 81.3893 217.217 79.448 214.743 78.04C212.311 76.5893 209.644 75.864 206.743 75.864C203.841 75.864 201.153 76.5893 198.679 78.04C196.247 79.448 194.305 81.3893 192.855 83.864C191.447 86.296 190.743 88.9627 190.743 91.864V101.592Z" fill="#2E3257"/>
</svg>
