<svg width="169" height="90" viewBox="0 0 169 90" fill="none" xmlns="http://www.w3.org/2000/svg">
<path d="M41.088 12.92H44.4V44.84H41.088V12.92ZM51.12 27.704H54.384V42.632H51.12V27.704ZM52.608 27.704H68.976V40.904H52.608V38.6H65.76V30.056H52.608V27.704ZM42.768 12.92H57.936V25.304H42.768V22.904H54.672V15.32H42.768V12.92ZM42.912 17.96H55.824V20.216H42.912V17.96ZM52.656 33.128H67.296V35.384H52.656V33.128ZM63.984 17.96H77.376V20.216H63.984V17.96ZM76.944 12.92V15.32H65.328V22.904H76.944V25.304H62.016V12.92H76.944ZM76.08 12.92H79.44V40.712C79.44 42.728 79.008 43.736 77.616 44.264C76.224 44.792 73.824 44.84 70.224 44.84C70.08 43.928 69.552 42.536 69.12 41.576C71.808 41.72 74.304 41.672 75.072 41.672C75.84 41.624 76.08 41.384 76.08 40.712V12.92ZM43.824 4.424H59.328V7.256H43.824V4.424ZM62.592 4.424H81.456V7.256H62.592V4.424ZM44.736 0.487998L48.144 1.352C46.368 5.576 43.536 9.704 40.752 12.392C40.08 11.864 38.64 10.856 37.776 10.424C40.656 7.928 43.248 4.232 44.736 0.487998ZM63.792 0.487998L67.248 1.304C65.52 5.528 62.4 9.464 59.376 12.008C58.656 11.48 57.12 10.616 56.256 10.184C59.424 7.832 62.304 4.28 63.792 0.487998ZM46.512 6.728L49.536 5.912C50.64 7.544 51.792 9.8 52.272 11.24L49.104 12.152C48.672 10.712 47.568 8.408 46.512 6.728ZM67.056 6.68L70.128 5.72C71.616 7.352 73.248 9.656 73.968 11.24L70.8 12.296C70.128 10.76 68.544 8.408 67.056 6.68ZM106.08 31.736H109.68V44.792H106.08V31.736ZM103.776 17.048L107.088 18.632C104.4 21.032 101.184 23.72 98.592 25.448L96.096 24.008C98.64 22.184 101.904 19.208 103.776 17.048ZM113.616 19.544L116.832 21.32C111.888 25.352 105.072 30.008 99.792 32.84L97.392 31.208C102.672 28.28 109.488 23.288 113.616 19.544ZM91.392 23.96L93.744 21.896C97.344 23.624 102.048 26.312 104.448 28.28L101.904 30.536C99.648 28.616 95.088 25.784 91.392 23.96ZM115.296 27.032L117.84 25.064C121.968 27.368 127.008 30.824 129.552 33.464L126.864 35.576C124.512 33.032 119.52 29.384 115.296 27.032ZM114.432 36.68L117.072 34.712C121.152 36.536 126.336 39.464 128.976 41.672L126.192 43.832C123.696 41.672 118.56 38.6 114.432 36.68ZM87.072 30.776C96.144 30.728 110.976 30.488 124.752 30.2L124.56 32.984C111.072 33.32 96.624 33.656 87.36 33.8L87.072 30.776ZM97.968 34.76L101.232 36.008C97.968 39.128 93.024 42.152 88.896 44.072C88.272 43.4 86.928 42.152 86.112 41.624C90.384 39.944 95.04 37.4 97.968 34.76ZM106.08 0.631999H109.68V17.72H106.08V0.631999ZM89.472 4.232H127.008V6.968H89.472V4.232ZM92.112 10.04H124.176V12.824H92.112V10.04ZM86.928 15.944H129.168V18.824H86.928V15.944ZM2.22787 55.592V78.2L24.8839 55.592H27.3799L13.4119 69.512L27.3319 89H25.2199L12.1639 70.76L2.22787 80.696V89H0.451875V55.592H2.22787ZM47.5511 55.592H49.4231L63.1511 89H61.2311L56.7191 77.96H40.2551L35.6951 89H33.8231L47.5511 55.592ZM40.9751 76.232H55.9991L48.4631 57.896L40.9751 76.232ZM70.9384 89V55.592H72.8104L96.1384 78.248V55.592H97.9144V89H96.1384V80.744L72.7144 57.896V89H70.9384ZM120.246 73.016C117.526 72.472 115.302 71.88 113.574 71.24C111.878 70.568 110.534 69.672 109.542 68.552C108.582 67.4 108.102 65.928 108.102 64.136C108.102 62.28 108.582 60.648 109.542 59.24C110.534 57.832 111.91 56.744 113.67 55.976C115.462 55.208 117.526 54.824 119.862 54.824C122.102 54.824 124.15 55.304 126.006 56.264C127.894 57.192 129.382 58.504 130.47 60.2C131.558 61.896 132.102 63.832 132.102 66.008H130.326C130.326 64.12 129.862 62.456 128.934 61.016C128.006 59.576 126.742 58.472 125.142 57.704C123.542 56.904 121.766 56.504 119.814 56.504C118.086 56.504 116.47 56.776 114.966 57.32C113.462 57.864 112.23 58.696 111.27 59.816C110.342 60.936 109.878 62.344 109.878 64.04C109.878 65.576 110.326 66.808 111.222 67.736C112.118 68.632 113.286 69.32 114.726 69.8C116.166 70.28 118.182 70.792 120.774 71.336C123.398 71.88 125.43 72.408 126.87 72.92C128.342 73.4 129.574 74.216 130.566 75.368C131.59 76.52 132.102 78.136 132.102 80.216C132.102 82.296 131.542 84.056 130.422 85.496C129.334 86.904 127.878 87.96 126.054 88.664C124.23 89.368 122.246 89.72 120.102 89.72C117.446 89.72 115.11 89.224 113.094 88.232C111.078 87.24 109.526 85.848 108.438 84.056C107.382 82.232 106.854 80.152 106.854 77.816H108.63C108.63 79.864 109.078 81.656 109.974 83.192C110.902 84.728 112.23 85.928 113.958 86.792C115.686 87.624 117.734 88.04 120.102 88.04C123.046 88.04 125.478 87.336 127.398 85.928C129.35 84.52 130.326 82.6 130.326 80.168C130.326 78.504 129.91 77.224 129.078 76.328C128.246 75.432 127.19 74.792 125.91 74.408C124.662 73.992 122.774 73.528 120.246 73.016ZM155.057 54.872C157.553 54.872 159.857 55.496 161.969 56.744C164.081 57.96 165.745 59.624 166.961 61.736C168.209 63.848 168.833 66.152 168.833 68.648V75.944C168.833 78.44 168.209 80.744 166.961 82.856C165.745 84.968 164.081 86.648 161.969 87.896C159.857 89.112 157.553 89.72 155.057 89.72C152.561 89.72 150.257 89.112 148.145 87.896C146.033 86.648 144.353 84.968 143.105 82.856C141.889 80.744 141.281 78.44 141.281 75.944V68.648C141.281 66.152 141.889 63.848 143.105 61.736C144.353 59.624 146.033 57.96 148.145 56.744C150.257 55.496 152.561 54.872 155.057 54.872ZM143.057 75.944C143.057 78.12 143.585 80.136 144.641 81.992C145.729 83.816 147.185 85.272 149.009 86.36C150.865 87.416 152.881 87.944 155.057 87.944C157.233 87.944 159.233 87.416 161.057 86.36C162.913 85.272 164.369 83.816 165.425 81.992C166.513 80.136 167.057 78.12 167.057 75.944V68.648C167.057 66.472 166.513 64.472 165.425 62.648C164.369 60.792 162.913 59.336 161.057 58.28C159.233 57.192 157.233 56.648 155.057 56.648C152.881 56.648 150.865 57.192 149.009 58.28C147.185 59.336 145.729 60.792 144.641 62.648C143.585 64.472 143.057 66.472 143.057 68.648V75.944Z" fill="#DFC5A4"/>
</svg>
