<svg width="23" height="14" viewBox="0 0 23 14" fill="none" xmlns="http://www.w3.org/2000/svg">
<g clip-path="url(#clip0_55_41)">
<path d="M20.1253 2.60711C19.4551 2.8749 18.7327 3.05087 17.9842 3.13503C18.7501 2.72953 19.342 2.08684 19.6205 1.31409C18.8981 1.69664 18.0973 1.96442 17.2531 2.11744C16.5655 1.45946 15.5994 1.0769 14.5027 1.0769C12.4573 1.0769 10.7862 2.5459 10.7862 4.3592C10.7862 4.61933 10.821 4.87182 10.8819 5.109C7.78335 4.97128 5.02425 3.66295 3.18775 1.68134C2.86571 2.16335 2.68293 2.72953 2.68293 3.32631C2.68293 4.46631 3.33571 5.47625 4.34535 6.05008C3.72738 6.05008 3.15293 5.89706 2.64811 5.66752V5.69048C2.64811 7.28189 3.93627 8.61317 5.64222 8.91156C5.09451 9.04332 4.51951 9.06165 3.96238 8.96512C4.19878 9.61735 4.66177 10.1881 5.28624 10.597C5.91072 11.006 6.6653 11.2326 7.4439 11.2451C6.12408 12.1636 4.48809 12.66 2.80478 12.6529C2.50885 12.6529 2.21292 12.6376 1.91699 12.607C3.57071 13.5404 5.53777 14.0837 7.64409 14.0837C14.5027 14.0837 18.2714 9.07988 18.2714 4.74175C18.2714 4.59638 18.2714 4.45866 18.2627 4.31329C18.9938 3.85423 19.6205 3.27275 20.1253 2.60711Z" fill="#DFC5A4"/>
</g>
<defs>
<clipPath id="clip0_55_41">
<rect width="23" height="14" fill="white"/>
</clipPath>
</defs>
</svg>
