<svg width="21" height="20" viewBox="0 0 21 20" fill="none" xmlns="http://www.w3.org/2000/svg">
<g clip-path="url(#clip0_55_48)">
<path d="M10.5 0.833252C11.2481 0.833252 12.0155 0.851585 12.7592 0.881585L13.6378 0.921585L14.4786 0.969085L15.2661 1.01992L15.9854 1.07325C16.7659 1.13015 17.5004 1.44737 18.0596 1.96912C18.6188 2.49086 18.9669 3.1837 19.0426 3.92575L19.0776 4.27992L19.1432 5.03825C19.2045 5.82409 19.25 6.68075 19.25 7.49992C19.25 8.31909 19.2045 9.17575 19.1432 9.96159L19.0776 10.7199C19.0662 10.8416 19.0549 10.9591 19.0426 11.0741C18.9668 11.8163 18.6186 12.5092 18.0593 13.031C17.4999 13.5527 16.7652 13.8699 15.9845 13.9266L15.267 13.9791L14.4795 14.0308L13.6378 14.0783L12.7592 14.1183C12.0066 14.1494 11.2534 14.1655 10.5 14.1666C9.74664 14.1655 8.9934 14.1494 8.24075 14.1183L7.36225 14.0783L6.52138 14.0308L5.73388 13.9791L5.01463 13.9266C4.23408 13.8697 3.49961 13.5525 2.94041 13.0307C2.38122 12.509 2.03313 11.8161 1.95737 11.0741L1.92238 10.7199L1.85675 9.96159C1.78985 9.14253 1.75424 8.32144 1.75 7.49992C1.75 6.68075 1.7955 5.82409 1.85675 5.03825L1.92238 4.27992C1.93375 4.15825 1.94512 4.04075 1.95737 3.92575C2.0331 3.18383 2.38106 2.4911 2.94008 1.96937C3.4991 1.44764 4.23336 1.13034 5.01375 1.07325L5.73213 1.01992L6.51963 0.969085L7.36137 0.921585L8.23987 0.881585C8.99281 0.850446 9.74635 0.834331 10.5 0.833252ZM10.5 2.49992C9.77812 2.49992 9.03525 2.51825 8.3125 2.54659L7.45675 2.58575L6.63513 2.63159L5.86338 2.68159L5.15638 2.73409C4.78479 2.75919 4.43454 2.90879 4.16771 3.15636C3.90087 3.40392 3.73469 3.73347 3.69863 4.08659C3.59625 5.09409 3.5 6.34825 3.5 7.49992C3.5 8.65159 3.59625 9.90575 3.69863 10.9133C3.773 11.6399 4.3785 12.2049 5.15638 12.2658L5.86338 12.3174L6.63513 12.3674L7.45675 12.4141L8.3125 12.4533C9.03525 12.4816 9.77812 12.4999 10.5 12.4999C11.2219 12.4999 11.9648 12.4816 12.6875 12.4533L13.5433 12.4141L14.3649 12.3683L15.1366 12.3183L15.8436 12.2658C16.2152 12.2406 16.5655 12.091 16.8323 11.8435C17.0991 11.5959 17.2653 11.2664 17.3014 10.9133C17.4038 9.90575 17.5 8.65159 17.5 7.49992C17.5 6.34825 17.4038 5.09409 17.3014 4.08659C17.2653 3.73347 17.0991 3.40392 16.8323 3.15636C16.5655 2.90879 16.2152 2.75919 15.8436 2.73409L15.1366 2.68242L14.3649 2.63242L13.5433 2.58575L12.6875 2.54659C11.9587 2.51672 11.2294 2.50117 10.5 2.49992ZM8.75 5.47909C8.74994 5.39764 8.77078 5.31741 8.8107 5.24538C8.85061 5.17335 8.9084 5.1117 8.97903 5.06578C9.04967 5.01987 9.13101 4.99108 9.21599 4.98192C9.30097 4.97277 9.38701 4.98352 9.46663 5.01325L9.5375 5.04659L13.2125 7.06659C13.2857 7.1068 13.3476 7.16324 13.393 7.23112C13.4383 7.29899 13.4659 7.37629 13.4732 7.45646C13.4805 7.53662 13.4673 7.61728 13.4349 7.69159C13.4025 7.76589 13.3517 7.83164 13.2869 7.88325L13.2125 7.93325L9.5375 9.95409C9.46344 9.99493 9.38002 10.0179 9.29451 10.021C9.20899 10.0241 9.12397 10.0073 9.04685 9.97198C8.96973 9.93666 8.90284 9.88391 8.85202 9.81834C8.8012 9.75276 8.76798 9.67635 8.75525 9.59575L8.75 9.52075V5.47909Z" fill="#DFC5A4"/>
</g>
<defs>
<clipPath id="clip0_55_48">
<rect width="21" height="20" fill="white"/>
</clipPath>
</defs>
</svg>
